<?xml version="1.0" standalone="no"?>
<!DOCTYPE svg PUBLIC "-//W3C//DTD SVG 20010904//EN"
 "http://www.w3.org/TR/2001/REC-SVG-20010904/DTD/svg10.dtd">
<svg version="1.0" xmlns="http://www.w3.org/2000/svg"
 width="500.000000pt" height="500.000000pt" viewBox="0 0 500.000000 500.000000"
 preserveAspectRatio="xMidYMid meet">
<metadata>
Created by potrace 1.11, written by Peter Selinger 2001-2013
</metadata>
<g transform="translate(0.000000,500.000000) scale(0.100000,-0.100000)"
fill="#000000" stroke="none">
<path d="M4897 4191 c-398 -268 -817 -813 -1199 -1563 -99 -193 -306 -558
-317 -558 -3 0 -17 27 -30 61 -51 133 -183 269 -331 344 -348 175 -760 117
-1162 -165 -115 -80 -343 -307 -454 -450 -158 -204 -352 -506 -488 -762 -66
-124 -39 -109 -281 -157 -185 -37 -397 -68 -533 -77 l-103 -7 3 -26 c2 -19 22
-40 73 -79 151 -114 317 -172 555 -193 215 -19 517 9 1045 97 502 83 616 95
958 101 315 6 539 -4 731 -32 152 -23 171 -21 199 18 21 28 416 727 461 815
37 72 2 96 -169 117 -478 56 -839 40 -1217 -55 -187 -47 -280 -80 -678 -241
-444 -178 -660 -262 -666 -257 -5 5 685 413 809 478 246 130 520 220 805 264
120 19 407 36 474 29 52 -6 34 -29 153 187 77 139 168 273 215 318 21 20 113
79 205 131 176 100 291 189 350 269 57 78 72 127 179 573 64 266 171 453 388
674 118 120 128 133 128 168 0 20 -3 37 -7 37 -5 0 -47 -27 -96 -59z"/>
</g>
</svg>
